<svg width="16" height="16" viewBox="0 0 16 16" fill="none" xmlns="http://www.w3.org/2000/svg">
<path d="M15.5233 8.47046H8.54418L13.1922 13.1184C13.3698 13.296 13.6622 13.3105 13.8448 13.1384C14.983 12.066 15.766 10.6205 15.9957 8.99546C16.0351 8.71723 15.8042 8.47046 15.5233 8.47046ZM15.0577 6.56458C14.8154 3.05106 12.0077 0.243416 8.49418 0.0010636C8.22594 -0.0174664 8.00006 0.20871 8.00006 0.477533V7.0587H14.5816C14.8504 7.0587 15.0763 6.83282 15.0577 6.56458ZM6.58829 8.47046V1.49136C6.58829 1.21048 6.34153 0.979587 6.06359 1.01901C2.55859 1.5143 -0.120524 4.57635 0.00418194 8.24605C0.132417 12.0149 3.37741 15.1054 7.14801 15.0581C8.63036 15.0396 10.0001 14.5619 11.1263 13.7631C11.3586 13.5984 11.3739 13.2563 11.1725 13.0549L6.58829 8.47046Z" fill="#DDE2FF"/>
</svg>
