<svg width="16" height="16" viewBox="0 0 16 16" fill="none" xmlns="http://www.w3.org/2000/svg">
<path opacity="0.4" d="M15.2312 9.86558L13.9 9.09683C14.0344 8.37183 14.0344 7.62808 13.9 6.90308L15.2312 6.13433C15.3844 6.04683 15.4531 5.86558 15.4031 5.69683C15.0562 4.58433 14.4656 3.57808 13.6937 2.74058C13.575 2.61246 13.3812 2.58121 13.2312 2.66871L11.9 3.43746C11.3406 2.95621 10.6969 2.58433 9.99998 2.34058V0.806206C9.99998 0.631206 9.87811 0.478081 9.70623 0.440581C8.55936 0.184331 7.38436 0.196831 6.29374 0.440581C6.12186 0.478081 5.99999 0.631206 5.99999 0.806206V2.34371C5.30624 2.59058 4.66249 2.96246 4.09999 3.44058L2.77186 2.67183C2.61874 2.58433 2.42811 2.61246 2.30936 2.74371C1.53749 3.57808 0.946865 4.58433 0.59999 5.69996C0.546865 5.86871 0.61874 6.04996 0.771865 6.13746L2.10311 6.90621C1.96874 7.63121 1.96874 8.37496 2.10311 9.09996L0.771865 9.86871C0.61874 9.95621 0.54999 10.1375 0.59999 10.3062C0.946865 11.4187 1.53749 12.425 2.30936 13.2625C2.42811 13.3906 2.62186 13.4218 2.77186 13.3343L4.10311 12.5656C4.66249 13.0468 5.30624 13.4187 6.00311 13.6625V15.2C6.00311 15.375 6.12499 15.5281 6.29686 15.5656C7.44374 15.8218 8.61874 15.8093 9.70936 15.5656C9.88123 15.5281 10.0031 15.375 10.0031 15.2V13.6625C10.6969 13.4156 11.3406 13.0437 11.9031 12.5656L13.2344 13.3343C13.3875 13.4218 13.5781 13.3937 13.6969 13.2625C14.4687 12.4281 15.0594 11.4218 15.4062 10.3062C15.4531 10.1343 15.3844 9.95308 15.2312 9.86558V9.86558ZM7.99999 10.5C6.62186 10.5 5.49999 9.37808 5.49999 7.99996C5.49999 6.62183 6.62186 5.49996 7.99999 5.49996C9.37811 5.49996 10.5 6.62183 10.5 7.99996C10.5 9.37808 9.37811 10.5 7.99999 10.5Z" fill="#9FA2B4"/>
</svg>
